<svg width="548" height="434" viewBox="0 0 548 434" fill="none" xmlns="http://www.w3.org/2000/svg">
<g clip-path="url(#clip0_259_67)">
<path d="M271.06 147.92L225.54 121.64L271.06 95.36L316.58 121.64L271.06 147.92Z" fill="url(#paint0_radial_259_67)"/>
<path style="mix-blend-mode:lighten" d="M271.06 368.55V147.92L316.58 121.64V368.55H271.06Z" fill="url(#paint1_linear_259_67)"/>
<path style="mix-blend-mode:lighten" d="M271.06 368.55V147.92L225.54 121.64V368.55H271.06Z" fill="url(#paint2_linear_259_67)"/>
<g opacity="0.4">
<path d="M367.2 191.36L344.44 178.22L367.2 165.08L389.96 178.22L367.2 191.36Z" fill="url(#paint3_radial_259_67)"/>
<path style="mix-blend-mode:lighten" d="M367.2 362.57V191.36L389.96 178.22V362.57H367.2Z" fill="url(#paint4_linear_259_67)"/>
<path style="mix-blend-mode:lighten" d="M367.2 362.57V191.36L344.44 178.22V362.57H367.2Z" fill="url(#paint5_linear_259_67)"/>
</g>
<g opacity="0.2">
<path d="M405.3 133.7L382.54 120.56L405.3 107.43L428.06 120.57L405.3 133.7Z" fill="url(#paint6_radial_259_67)"/>
<path style="mix-blend-mode:lighten" d="M405.3 304.92V133.7L428.06 120.57V304.92H405.3Z" fill="url(#paint7_linear_259_67)"/>
<path style="mix-blend-mode:lighten" d="M405.3 304.92V133.7L382.54 120.57V304.92H405.3Z" fill="url(#paint8_linear_259_67)"/>
</g>
<g opacity="0.4">
<path d="M173.86 191.36L196.62 178.22L173.86 165.08L151.1 178.22L173.86 191.36Z" fill="url(#paint9_radial_259_67)"/>
<path style="mix-blend-mode:lighten" d="M173.86 362.57V191.36L151.1 178.22V362.57H173.86Z" fill="url(#paint10_linear_259_67)"/>
<path style="mix-blend-mode:lighten" d="M173.86 362.57V191.36L196.62 178.22V362.57H173.86Z" fill="url(#paint11_linear_259_67)"/>
</g>
<g opacity="0.2">
<path d="M135.76 133.7L158.52 120.56L135.76 107.43L113 120.57L135.76 133.7Z" fill="url(#paint12_radial_259_67)"/>
<path style="mix-blend-mode:lighten" d="M135.76 304.92V133.7L113 120.57V304.92H135.76Z" fill="url(#paint13_linear_259_67)"/>
<path style="mix-blend-mode:lighten" d="M135.76 304.92V133.7L158.52 120.57V304.92H135.76Z" fill="url(#paint14_linear_259_67)"/>
</g>
<path d="M417.55 250.35L372.03 224.07L417.54 197.79L463.06 224.07L417.55 250.35Z" fill="url(#paint15_radial_259_67)"/>
<path style="mix-blend-mode:lighten" d="M417.54 407.44V250.35L463.06 224.07V407.44H417.54Z" fill="url(#paint16_linear_259_67)"/>
<path style="mix-blend-mode:lighten" d="M417.54 407.44V250.35L372.03 224.07V407.44H417.54Z" fill="url(#paint17_linear_259_67)"/>
<path d="M123.51 250.35L78 224.07L123.51 197.79L169.03 224.07L123.51 250.35Z" fill="url(#paint18_radial_259_67)"/>
<path style="mix-blend-mode:lighten" d="M123.51 433.71V250.35L169.03 224.07V433.71H123.51Z" fill="url(#paint19_linear_259_67)"/>
<path style="mix-blend-mode:lighten" d="M123.51 407.44V250.35L78 224.07V407.44H123.51Z" fill="url(#paint20_linear_259_67)"/>
<g style="mix-blend-mode:multiply">
<mask id="mask0_259_67" style="mask-type:luminance" maskUnits="userSpaceOnUse" x="247" y="108" width="47" height="27">
<path d="M270.7 134.86C283.342 134.86 293.59 128.941 293.59 121.64C293.59 114.339 283.342 108.42 270.7 108.42C258.058 108.42 247.81 114.339 247.81 121.64C247.81 128.941 258.058 134.86 270.7 134.86Z" fill="white"/>
</mask>
<g mask="url(#mask0_259_67)">
<path d="M295.83 107.14H245.58V136.15H295.83V107.14Z" fill="white"/>
<path d="M292.41 121.68C292.41 127.72 282.67 132.6 270.68 132.58C258.69 132.56 248.98 127.65 248.99 121.61C248.99 115.57 258.73 110.69 270.72 110.71C282.71 110.73 292.42 115.64 292.41 121.68Z" fill="white"/>
<path d="M292.314 121.685C292.323 115.676 282.656 110.79 270.721 110.771C258.786 110.753 249.103 115.608 249.094 121.617C249.084 127.626 258.752 132.513 270.687 132.531C282.621 132.55 292.304 127.694 292.314 121.685Z" fill="white"/>
<path d="M292.21 121.68C292.21 127.66 282.56 132.5 270.68 132.48C258.8 132.46 249.17 127.6 249.18 121.61C249.18 115.63 258.83 110.79 270.71 110.81C282.59 110.83 292.22 115.69 292.21 121.68Z" fill="white"/>
<path d="M292.12 121.68C292.12 127.64 282.52 132.45 270.69 132.43C258.86 132.41 249.28 127.57 249.29 121.61C249.29 115.65 258.89 110.84 270.72 110.86C282.55 110.88 292.13 115.72 292.12 121.68Z" fill="white"/>
<path d="M292.02 121.68C292.02 127.61 282.46 132.4 270.69 132.38C258.92 132.36 249.38 127.54 249.39 121.61C249.39 115.68 258.95 110.89 270.72 110.91C282.49 110.93 292.03 115.75 292.02 121.68Z" fill="white"/>
<path d="M291.92 121.68C291.92 127.58 282.4 132.35 270.68 132.33C258.96 132.31 249.47 127.51 249.48 121.61C249.48 115.71 259 110.94 270.72 110.96C282.44 110.98 291.93 115.78 291.92 121.68Z" fill="white"/>
<path d="M291.824 121.684C291.833 115.808 282.385 111.03 270.72 111.011C259.056 110.993 249.593 115.742 249.584 121.618C249.574 127.494 259.023 132.273 270.687 132.291C282.351 132.31 291.814 127.561 291.824 121.684Z" fill="white"/>
<path d="M291.73 121.68C291.73 127.53 282.3 132.25 270.69 132.24C259.08 132.23 249.67 127.47 249.68 121.62C249.68 115.77 259.11 111.05 270.72 111.06C282.33 111.08 291.74 115.83 291.73 121.68Z" fill="#FEFEFF"/>
<path d="M291.634 121.684C291.643 115.863 282.279 111.129 270.72 111.111C259.161 111.093 249.783 115.797 249.774 121.618C249.765 127.439 259.128 132.173 270.687 132.191C282.246 132.209 291.624 127.505 291.634 121.684Z" fill="#FEFEFE"/>
<path d="M291.53 121.67C291.53 127.46 282.19 132.15 270.69 132.13C259.19 132.11 249.87 127.4 249.88 121.61C249.88 115.82 259.22 111.13 270.72 111.15C282.22 111.17 291.54 115.88 291.53 121.67Z" fill="#FEFEFE"/>
<path d="M291.43 121.67C291.43 127.44 282.13 132.1 270.68 132.08C259.23 132.06 249.96 127.37 249.97 121.61C249.97 115.84 259.27 111.18 270.72 111.2C282.17 111.22 291.44 115.91 291.43 121.67Z" fill="#FEFEFE"/>
<path d="M291.33 121.67C291.33 127.41 282.08 132.05 270.68 132.03C259.28 132.01 250.05 127.35 250.06 121.61C250.06 115.87 259.31 111.23 270.71 111.25C282.11 111.27 291.34 115.93 291.33 121.67Z" fill="#FEFEFE"/>
<path d="M291.24 121.67C291.24 127.38 282.03 132 270.69 131.98C259.35 131.96 250.16 127.32 250.17 121.61C250.17 115.9 259.38 111.28 270.72 111.3C282.06 111.32 291.25 115.96 291.24 121.67Z" fill="#FDFDFE"/>
<path d="M291.14 121.67C291.14 127.35 281.97 131.95 270.69 131.93C259.4 131.91 250.26 127.29 250.27 121.61C250.27 115.93 259.44 111.33 270.72 111.35C282.01 111.37 291.15 115.99 291.14 121.67Z" fill="#FDFDFE"/>
<path d="M291.04 121.67C291.04 127.33 281.92 131.9 270.68 131.88C259.45 131.86 250.35 127.26 250.36 121.61C250.36 115.95 259.48 111.38 270.72 111.4C281.95 111.42 291.05 116.02 291.04 121.67Z" fill="#FDFDFE"/>
<path d="M290.944 121.683C290.952 116.055 281.898 111.479 270.72 111.461C259.541 111.444 250.472 115.992 250.464 121.619C250.455 127.247 259.509 131.824 270.688 131.841C281.866 131.859 290.935 127.311 290.944 121.683Z" fill="#FDFDFD"/>
<path d="M290.844 121.683C290.852 116.083 281.843 111.529 270.72 111.511C259.597 111.494 250.572 116.019 250.564 121.62C250.555 127.22 259.565 131.774 270.688 131.791C281.811 131.809 290.835 127.283 290.844 121.683Z" fill="#FDFCFD"/>
<path d="M290.75 121.67C290.75 127.25 281.76 131.75 270.69 131.73C259.62 131.71 250.65 127.18 250.66 121.6C250.66 116.02 259.65 111.52 270.72 111.54C281.79 111.56 290.76 116.09 290.75 121.67Z" fill="#FCFCFD"/>
<path d="M290.654 121.683C290.662 116.132 281.737 111.619 270.719 111.601C259.701 111.584 250.762 116.069 250.754 121.62C250.745 127.17 259.67 131.684 270.688 131.701C281.706 131.719 290.645 127.233 290.654 121.683Z" fill="#FCFCFD"/>
<path d="M290.55 121.67C290.55 127.19 281.65 131.65 270.68 131.64C259.72 131.62 250.84 127.13 250.84 121.61C250.84 116.09 259.74 111.63 270.71 111.64C281.67 111.66 290.55 116.15 290.55 121.67Z" fill="#FCFCFD"/>
<path d="M290.45 121.67C290.45 127.16 281.59 131.6 270.68 131.59C259.77 131.57 250.93 127.11 250.94 121.61C250.94 116.12 259.8 111.68 270.71 111.69C281.62 111.7 290.46 116.17 290.45 121.67Z" fill="#FBFBFC"/>
<path d="M290.36 121.67C290.36 127.14 281.54 131.56 270.69 131.54C259.83 131.52 251.04 127.08 251.05 121.61C251.05 116.14 259.87 111.72 270.72 111.74C281.58 111.76 290.37 116.2 290.36 121.67Z" fill="#FBFBFC"/>
<path d="M290.26 121.67C290.26 127.11 281.49 131.51 270.69 131.49C259.89 131.47 251.14 127.05 251.15 121.61C251.16 116.17 259.92 111.77 270.72 111.79C281.52 111.81 290.27 116.23 290.26 121.67Z" fill="#FBFBFC"/>
<path d="M290.164 121.682C290.172 116.269 281.466 111.868 270.719 111.851C259.972 111.834 251.252 116.208 251.244 121.621C251.235 127.033 259.941 131.434 270.688 131.451C281.436 131.468 290.155 127.094 290.164 121.682Z" fill="#FAFAFC"/>
<path d="M290.06 121.67C290.06 127.06 281.38 131.41 270.68 131.39C259.99 131.37 251.32 126.99 251.33 121.61C251.33 116.22 260.01 111.87 270.71 111.89C281.4 111.91 290.07 116.29 290.06 121.67Z" fill="#FAFAFB"/>
<path d="M289.964 121.682C289.972 116.324 281.356 111.968 270.719 111.951C260.082 111.935 251.452 116.264 251.444 121.621C251.435 126.978 260.051 131.335 270.688 131.351C281.325 131.368 289.955 127.039 289.964 121.682Z" fill="#FAFAFB"/>
<path d="M289.87 121.67C289.87 127 281.27 131.31 270.69 131.29C260.11 131.27 251.53 126.94 251.54 121.61C251.54 116.28 260.14 111.97 270.72 111.99C281.31 112.01 289.88 116.34 289.87 121.67Z" fill="#F9F9FB"/>
<path d="M289.77 121.67C289.77 126.97 281.22 131.26 270.69 131.24C260.16 131.22 251.63 126.91 251.64 121.61C251.64 116.31 260.19 112.02 270.72 112.04C281.25 112.06 289.78 116.37 289.77 121.67Z" fill="#F9F9FA"/>
<path d="M289.67 121.67C289.67 126.95 281.16 131.21 270.68 131.19C260.2 131.17 251.72 126.88 251.72 121.61C251.72 116.33 260.23 112.07 270.71 112.09C281.19 112.11 289.67 116.4 289.67 121.67Z" fill="#F9F8FA"/>
<path d="M289.57 121.67C289.57 126.92 281.11 131.16 270.68 131.15C260.26 131.13 251.81 126.87 251.82 121.62C251.82 116.37 260.28 112.13 270.71 112.14C281.13 112.16 289.58 116.42 289.57 121.67Z" fill="#F8F8FA"/>
<path d="M289.48 121.67C289.48 126.89 281.06 131.11 270.69 131.1C260.32 131.08 251.92 126.84 251.93 121.62C251.94 116.4 260.35 112.18 270.72 112.19C281.09 112.21 289.49 116.45 289.48 121.67Z" fill="#F8F8FA"/>
<path d="M289.38 121.67C289.38 126.86 281 131.06 270.69 131.05C260.38 131.04 252.02 126.81 252.03 121.62C252.03 116.43 260.41 112.23 270.72 112.24C281.04 112.26 289.39 116.48 289.38 121.67Z" fill="#F7F7F9"/>
<path d="M289.284 121.68C289.292 116.511 280.98 112.307 270.718 112.291C260.457 112.275 252.132 116.453 252.124 121.622C252.116 126.791 260.427 130.995 270.689 131.011C280.95 131.027 289.275 126.85 289.284 121.68Z" fill="#F7F7F9"/>
<path d="M289.18 121.67C289.18 126.81 280.89 130.96 270.68 130.95C260.47 130.93 252.2 126.75 252.21 121.61C252.21 116.47 260.5 112.32 270.71 112.33C280.92 112.35 289.19 116.53 289.18 121.67Z" fill="#F6F6F9"/>
<path d="M289.09 121.67C289.09 126.78 280.84 130.92 270.69 130.9C260.54 130.88 252.31 126.73 252.32 121.61C252.32 116.5 260.56 112.36 270.72 112.38C280.87 112.4 289.1 116.55 289.09 121.67Z" fill="#F6F6F8"/>
<path d="M288.99 121.67C288.99 126.76 280.79 130.87 270.69 130.85C260.59 130.83 252.41 126.7 252.42 121.61C252.42 116.52 260.62 112.41 270.72 112.43C280.82 112.45 289 116.58 288.99 121.67Z" fill="#F5F5F8"/>
<path d="M288.89 121.67C288.89 126.73 280.73 130.82 270.69 130.8C260.64 130.78 252.51 126.67 252.52 121.61C252.52 116.55 260.68 112.46 270.72 112.48C280.76 112.5 288.9 116.61 288.89 121.67Z" fill="#F5F5F8"/>
<path d="M288.794 121.68C288.802 116.648 280.709 112.557 270.718 112.541C260.727 112.526 252.622 116.592 252.614 121.623C252.606 126.654 260.699 130.746 270.689 130.761C280.68 130.777 288.786 126.711 288.794 121.68Z" fill="#F5F5F7"/>
<path d="M288.69 121.67C288.69 126.67 280.62 130.72 270.68 130.7C260.74 130.68 252.69 126.62 252.7 121.61C252.7 116.61 260.77 112.56 270.71 112.58C280.65 112.6 288.7 116.66 288.69 121.67Z" fill="#F4F4F7"/>
<path d="M288.604 121.679C288.611 116.703 280.604 112.657 270.718 112.641C260.832 112.626 252.811 116.647 252.804 121.623C252.796 126.599 260.804 130.646 270.689 130.661C280.575 130.677 288.596 126.655 288.604 121.679Z" fill="#F4F4F7"/>
<path d="M288.504 121.679C288.511 116.731 280.548 112.707 270.718 112.691C260.887 112.676 252.911 116.675 252.904 121.623C252.896 126.572 260.859 130.596 270.69 130.611C280.52 130.627 288.496 126.628 288.504 121.679Z" fill="#F3F3F6"/>
<path d="M288.4 121.67C288.4 126.59 280.46 130.57 270.69 130.56C260.91 130.55 253 126.54 253 121.62C253 116.7 260.94 112.72 270.71 112.73C280.49 112.74 288.4 116.75 288.4 121.67Z" fill="#F3F2F6"/>
<path d="M288.304 121.679C288.311 116.786 280.438 112.807 270.718 112.791C260.997 112.776 253.111 116.73 253.104 121.624C253.096 126.517 260.97 130.496 270.69 130.511C280.41 130.527 288.296 126.572 288.304 121.679Z" fill="#F2F2F5"/>
<path d="M288.2 121.67C288.2 126.54 280.35 130.47 270.68 130.46C261.01 130.45 253.18 126.49 253.19 121.62C253.19 116.75 261.04 112.82 270.71 112.83C280.38 112.84 288.21 116.8 288.2 121.67Z" fill="#F1F1F5"/>
<path d="M288.11 121.67C288.11 126.51 280.3 130.42 270.69 130.41C261.08 130.4 253.29 126.46 253.3 121.62C253.3 116.78 261.11 112.87 270.72 112.88C280.33 112.89 288.12 116.83 288.11 121.67Z" fill="#F1F1F5"/>
<path d="M288.01 121.67C288.01 126.48 280.25 130.37 270.69 130.36C261.13 130.35 253.39 126.43 253.39 121.62C253.39 116.81 261.15 112.92 270.71 112.93C280.27 112.94 288.01 116.86 288.01 121.67Z" fill="#F0F0F4"/>
<path d="M287.91 121.67C287.91 126.46 280.19 130.33 270.69 130.31C261.18 130.3 253.49 126.4 253.49 121.62C253.49 116.83 261.21 112.96 270.71 112.98C280.22 112.99 287.91 116.89 287.91 121.67Z" fill="#F0F0F4"/>
<path d="M287.81 121.67C287.81 126.43 280.14 130.28 270.68 130.26C261.23 130.25 253.57 126.38 253.58 121.62C253.58 116.86 261.25 113.01 270.71 113.03C280.16 113.04 287.82 116.91 287.81 121.67Z" fill="#EFEFF3"/>
<path d="M287.72 121.67C287.72 126.4 280.09 130.23 270.69 130.21C261.29 130.2 253.68 126.35 253.69 121.62C253.69 116.89 261.32 113.06 270.72 113.08C280.12 113.09 287.73 116.94 287.72 121.67Z" fill="#EFEFF3"/>
<path d="M287.624 121.678C287.631 116.972 280.062 113.146 270.717 113.131C261.372 113.117 253.791 116.919 253.784 121.625C253.776 126.33 261.346 130.157 270.69 130.171C280.035 130.186 287.616 126.383 287.624 121.678Z" fill="#EEEEF2"/>
<path d="M287.52 121.67C287.52 126.35 279.98 130.13 270.69 130.11C261.4 130.1 253.88 126.29 253.88 121.61C253.88 116.93 261.42 113.15 270.71 113.17C280 113.18 287.52 116.99 287.52 121.67Z" fill="#EEEDF2"/>
<path d="M287.42 121.67C287.42 126.32 279.92 130.08 270.69 130.07C261.45 130.06 253.97 126.27 253.98 121.62C253.98 116.97 261.48 113.21 270.71 113.22C279.95 113.23 287.43 117.02 287.42 121.67Z" fill="#EDEDF2"/>
<path d="M287.32 121.67C287.32 126.29 279.86 130.03 270.68 130.02C261.5 130.01 254.06 126.25 254.07 121.62C254.07 117 261.53 113.26 270.71 113.27C279.89 113.28 287.33 117.04 287.32 121.67Z" fill="#ECECF1"/>
<path d="M287.23 121.67C287.23 126.27 279.82 129.98 270.69 129.97C261.56 129.96 254.17 126.22 254.18 121.62C254.18 117.02 261.59 113.31 270.72 113.32C279.85 113.33 287.24 117.07 287.23 121.67Z" fill="#ECECF1"/>
<path d="M287.134 121.677C287.141 117.11 279.791 113.396 270.717 113.381C261.643 113.367 254.281 117.058 254.274 121.625C254.266 126.193 261.617 129.907 270.691 129.921C279.765 129.936 287.126 126.244 287.134 121.677Z" fill="#EBEBF0"/>
<path d="M287.03 121.67C287.03 126.21 279.71 129.88 270.69 129.87C261.67 129.86 254.37 126.16 254.37 121.62C254.37 117.08 261.69 113.41 270.71 113.42C279.73 113.43 287.03 117.13 287.03 121.67Z" fill="#EAEAF0"/>
<path d="M286.934 121.677C286.941 117.165 279.68 113.495 270.716 113.481C261.753 113.467 254.481 117.114 254.474 121.626C254.467 126.138 261.727 129.807 270.691 129.821C279.654 129.835 286.927 126.189 286.934 121.677Z" fill="#EAEAEF"/>
<path d="M286.84 121.67C286.84 126.16 279.6 129.78 270.69 129.77C261.78 129.76 254.56 126.11 254.57 121.62C254.57 117.13 261.81 113.51 270.72 113.52C279.63 113.53 286.85 117.18 286.84 121.67Z" fill="#E9E9EF"/>
<path d="M286.74 121.67C286.74 126.13 279.55 129.74 270.69 129.72C261.83 129.71 254.66 126.08 254.67 121.62C254.67 117.16 261.86 113.55 270.72 113.57C279.58 113.58 286.75 117.21 286.74 121.67Z" fill="#E8E8EE"/>
<path d="M286.64 121.67C286.64 126.1 279.49 129.69 270.69 129.67C261.89 129.66 254.76 126.05 254.76 121.62C254.76 117.19 261.91 113.6 270.71 113.62C279.51 113.63 286.64 117.24 286.64 121.67Z" fill="#E8E8EE"/>
<path d="M286.54 121.67C286.54 126.08 279.44 129.64 270.69 129.62C261.94 129.61 254.85 126.02 254.86 121.62C254.86 117.21 261.96 113.65 270.71 113.67C279.46 113.68 286.55 117.27 286.54 121.67Z" fill="#E7E7ED"/>
<path d="M286.44 121.67C286.44 126.05 279.38 129.59 270.68 129.57C261.98 129.56 254.94 126 254.95 121.62C254.96 117.24 262.01 113.7 270.71 113.72C279.41 113.73 286.45 117.29 286.44 121.67Z" fill="#E6E6ED"/>
<path d="M286.35 121.67C286.35 126.02 279.33 129.54 270.69 129.53C262.05 129.52 255.05 125.98 255.06 121.63C255.07 117.28 262.08 113.76 270.72 113.77C279.36 113.78 286.36 117.32 286.35 121.67Z" fill="#E6E6EC"/>
<path d="M286.254 121.676C286.26 117.351 279.304 113.835 270.716 113.821C262.128 113.808 255.16 117.302 255.154 121.627C255.147 125.951 262.103 129.468 270.691 129.481C279.279 129.495 286.247 126 286.254 121.676Z" fill="#E5E5EC"/>
<path d="M286.15 121.67C286.15 125.97 279.22 129.44 270.69 129.43C262.16 129.42 255.24 125.92 255.25 121.63C255.26 117.34 262.18 113.86 270.71 113.87C279.24 113.88 286.16 117.38 286.15 121.67Z" fill="#E4E4EB"/>
<path d="M286.05 121.67C286.05 125.94 279.16 129.39 270.69 129.38C262.21 129.37 255.34 125.89 255.35 121.62C255.35 117.35 262.24 113.9 270.71 113.91C279.19 113.92 286.06 117.4 286.05 121.67Z" fill="#E4E4EB"/>
<path d="M285.954 121.675C285.96 117.434 279.138 113.984 270.716 113.971C262.293 113.958 255.46 117.386 255.454 121.627C255.447 125.869 262.269 129.318 270.692 129.331C279.114 129.344 285.947 125.917 285.954 121.675Z" fill="#E3E3EA"/>
<path d="M285.86 121.67C285.86 125.89 279.06 129.29 270.69 129.28C262.32 129.27 255.54 125.84 255.54 121.62C255.54 117.4 262.34 114 270.71 114.01C279.08 114.02 285.86 117.45 285.86 121.67Z" fill="#E2E2EA"/>
<path d="M285.76 121.67C285.76 125.86 279.01 129.24 270.69 129.23C262.37 129.22 255.64 125.81 255.64 121.62C255.64 117.43 262.39 114.05 270.71 114.06C279.03 114.07 285.76 117.48 285.76 121.67Z" fill="#E1E1E9"/>
<path d="M285.66 121.67C285.66 125.83 278.95 129.19 270.69 129.18C262.43 129.17 255.73 125.78 255.74 121.62C255.74 117.46 262.45 114.1 270.71 114.11C278.97 114.12 285.67 117.51 285.66 121.67Z" fill="#E1E1E9"/>
<path d="M285.56 121.67C285.56 125.8 278.89 129.15 270.68 129.13C262.47 129.12 255.82 125.76 255.83 121.62C255.84 117.48 262.5 114.14 270.71 114.16C278.92 114.17 285.57 117.53 285.56 121.67Z" fill="#E0E0E8"/>
<path d="M285.47 121.67C285.47 125.78 278.85 129.1 270.69 129.08C262.53 129.07 255.93 125.73 255.94 121.62C255.95 117.51 262.56 114.19 270.72 114.21C278.88 114.23 285.48 117.56 285.47 121.67Z" fill="#DFDFE7"/>
<path d="M285.37 121.67C285.37 125.75 278.79 129.05 270.69 129.03C262.59 129.01 256.03 125.7 256.03 121.62C256.03 117.54 262.61 114.24 270.71 114.26C278.81 114.28 285.37 117.59 285.37 121.67Z" fill="#DEDEE7"/>
<path d="M285.27 121.67C285.27 125.72 278.74 129 270.69 128.99C262.64 128.98 256.12 125.68 256.13 121.63C256.14 117.58 262.66 114.3 270.71 114.31C278.76 114.32 285.28 117.62 285.27 121.67Z" fill="#DEDEE6"/>
<path d="M285.17 121.67C285.17 125.7 278.68 128.95 270.69 128.94C262.7 128.93 256.22 125.65 256.23 121.63C256.23 117.6 262.72 114.35 270.71 114.36C278.7 114.37 285.18 117.65 285.17 121.67Z" fill="#DDDDE6"/>
<path d="M285.08 121.67C285.08 125.67 278.63 128.9 270.69 128.89C262.75 128.88 256.32 125.63 256.33 121.63C256.33 117.63 262.78 114.4 270.72 114.41C278.66 114.42 285.09 117.67 285.08 121.67Z" fill="#DCDCE5"/>
<path d="M284.98 121.66C284.98 125.63 278.58 128.84 270.69 128.83C262.8 128.82 256.42 125.59 256.42 121.62C256.42 117.65 262.82 114.44 270.71 114.45C278.59 114.46 284.98 117.69 284.98 121.66Z" fill="#DBDBE4"/>
<path d="M284.88 121.66C284.88 125.6 278.52 128.79 270.69 128.78C262.86 128.77 256.52 125.56 256.52 121.62C256.52 117.68 262.88 114.49 270.71 114.5C278.54 114.51 284.88 117.72 284.88 121.66Z" fill="#DADAE4"/>
<path d="M284.78 121.66C284.78 125.58 278.46 128.74 270.69 128.73C262.91 128.72 256.61 125.53 256.62 121.62C256.63 117.71 262.94 114.54 270.71 114.55C278.49 114.56 284.79 117.75 284.78 121.66Z" fill="#DAD9E3"/>
<path d="M284.68 121.66C284.68 125.55 278.41 128.69 270.69 128.68C262.97 128.67 256.71 125.51 256.72 121.62C256.72 117.73 262.99 114.59 270.71 114.6C278.43 114.61 284.69 117.77 284.68 121.66Z" fill="#D9D9E3"/>
<path d="M284.59 121.66C284.59 125.52 278.36 128.64 270.69 128.63C263.02 128.62 256.81 125.48 256.81 121.62C256.81 117.76 263.04 114.64 270.71 114.65C278.38 114.66 284.59 117.8 284.59 121.66Z" fill="#D8D8E2"/>
<path d="M284.49 121.66C284.49 125.49 278.31 128.59 270.69 128.58C263.08 128.57 256.91 125.45 256.91 121.62C256.91 117.79 263.09 114.69 270.71 114.7C278.32 114.71 284.49 117.83 284.49 121.66Z" fill="#D7D7E1"/>
<path d="M284.39 121.66C284.39 125.47 278.25 128.55 270.69 128.53C263.13 128.52 257 125.42 257.01 121.61C257.01 117.8 263.15 114.72 270.71 114.74C278.27 114.75 284.4 117.85 284.39 121.66Z" fill="#D6D6E1"/>
<path d="M284.29 121.66C284.29 125.44 278.19 128.5 270.69 128.48C263.19 128.46 257.1 125.39 257.11 121.61C257.11 117.83 263.21 114.77 270.71 114.79C278.22 114.8 284.3 117.88 284.29 121.66Z" fill="#D5D5E0"/>
<path d="M284.2 121.66C284.2 125.41 278.15 128.45 270.69 128.44C263.23 128.43 257.2 125.38 257.21 121.62C257.21 117.87 263.26 114.83 270.72 114.84C278.18 114.85 284.21 117.9 284.2 121.66Z" fill="#D5D4E0"/>
<path d="M284.1 121.66C284.1 125.39 278.09 128.4 270.69 128.39C263.29 128.38 257.3 125.35 257.3 121.62C257.3 117.89 263.31 114.88 270.71 114.89C278.11 114.9 284.1 117.93 284.1 121.66Z" fill="#D4D4DF"/>
<path d="M284 121.66C284 125.36 278.04 128.35 270.69 128.34C263.35 128.33 257.4 125.32 257.4 121.62C257.4 117.92 263.36 114.93 270.71 114.94C278.05 114.95 284 117.96 284 121.66Z" fill="#D3D3DE"/>
<path d="M283.9 121.66C283.9 125.33 277.98 128.3 270.69 128.29C263.4 128.28 257.49 125.29 257.5 121.62C257.5 117.95 263.42 114.98 270.71 114.99C278 115 283.91 117.99 283.9 121.66Z" fill="#D2D2DE"/>
<path d="M283.8 121.66C283.8 125.3 277.92 128.25 270.69 128.24C263.45 128.23 257.59 125.27 257.6 121.62C257.6 117.98 263.48 115.03 270.71 115.04C277.94 115.05 283.81 118.01 283.8 121.66Z" fill="#D1D1DD"/>
<path d="M283.71 121.66C283.71 125.28 277.88 128.2 270.69 128.19C263.51 128.18 257.69 125.24 257.69 121.62C257.69 118 263.52 115.08 270.71 115.09C277.89 115.1 283.71 118.04 283.71 121.66Z" fill="#D0D0DC"/>
<path d="M283.61 121.66C283.61 125.25 277.82 128.15 270.69 128.14C263.56 128.13 257.79 125.21 257.79 121.62C257.79 118.03 263.58 115.13 270.71 115.14C277.84 115.15 283.61 118.07 283.61 121.66Z" fill="#CFCFDC"/>
<path d="M283.51 121.66C283.51 125.22 277.76 128.1 270.69 128.09C263.62 128.08 257.88 125.18 257.89 121.62C257.89 118.06 263.64 115.18 270.71 115.19C277.78 115.2 283.52 118.1 283.51 121.66Z" fill="#CECEDB"/>
<path d="M283.41 121.66C283.41 125.2 277.71 128.05 270.69 128.04C263.67 128.03 257.98 125.15 257.99 121.62C257.99 118.08 263.69 115.23 270.71 115.24C277.73 115.25 283.42 118.13 283.41 121.66Z" fill="#CECDDA"/>
<path d="M283.32 121.66C283.32 125.17 277.66 128 270.7 127.99C263.73 127.98 258.09 125.13 258.1 121.62C258.1 118.11 263.76 115.28 270.72 115.29C277.69 115.3 283.33 118.15 283.32 121.66Z" fill="#CDCCDA"/>
<path d="M283.22 121.66C283.22 125.14 277.61 127.95 270.69 127.94C263.78 127.93 258.18 125.1 258.18 121.62C258.18 118.14 263.79 115.32 270.71 115.34C277.62 115.35 283.22 118.18 283.22 121.66Z" fill="#CCCBD9"/>
<path d="M283.124 121.671C283.129 118.219 277.573 115.412 270.713 115.401C263.854 115.391 258.289 118.18 258.284 121.632C258.278 125.084 263.834 127.89 270.694 127.901C277.553 127.912 283.118 125.123 283.124 121.671Z" fill="#CBCAD8"/>
<path d="M283.02 121.66C283.02 125.09 277.49 127.86 270.69 127.85C263.89 127.84 258.37 125.05 258.38 121.63C258.38 118.2 263.91 115.43 270.71 115.44C277.51 115.45 283.03 118.24 283.02 121.66Z" fill="#CACAD8"/>
<path d="M282.92 121.66C282.92 125.06 277.44 127.81 270.69 127.8C263.94 127.79 258.47 125.03 258.48 121.63C258.48 118.23 263.96 115.48 270.71 115.49C277.46 115.5 282.93 118.26 282.92 121.66Z" fill="#C9C9D7"/>
<path d="M282.83 121.66C282.83 125.03 277.39 127.76 270.69 127.75C263.99 127.74 258.57 125 258.57 121.62C258.57 118.25 264.01 115.52 270.7 115.53C277.4 115.54 282.82 118.28 282.82 121.66H282.83Z" fill="#C8C8D6"/>
<path d="M282.73 121.66C282.73 125.01 277.34 127.71 270.69 127.7C264.05 127.69 258.67 124.97 258.67 121.62C258.67 118.27 264.06 115.57 270.71 115.58C277.35 115.59 282.73 118.31 282.73 121.66Z" fill="#C7C7D5"/>
<path d="M282.63 121.66C282.63 124.98 277.28 127.66 270.69 127.65C264.1 127.64 258.76 124.94 258.77 121.62C258.77 118.3 264.12 115.62 270.71 115.63C277.3 115.64 282.64 118.34 282.63 121.66Z" fill="#C6C6D5"/>
<path d="M282.53 121.66C282.53 124.95 277.22 127.61 270.69 127.6C264.16 127.6 258.86 124.91 258.87 121.62C258.87 118.33 264.18 115.67 270.71 115.68C277.24 115.69 282.54 118.37 282.53 121.66Z" fill="#C5C5D4"/>
<path d="M282.44 121.66C282.44 124.92 277.18 127.56 270.7 127.55C264.22 127.55 258.97 124.89 258.97 121.62C258.97 118.36 264.23 115.72 270.71 115.73C277.19 115.73 282.44 118.39 282.44 121.66Z" fill="#C4C4D3"/>
<path d="M282.34 121.66C282.34 124.9 277.12 127.51 270.69 127.5C264.26 127.5 259.06 124.86 259.06 121.62C259.06 118.38 264.28 115.77 270.71 115.78C277.14 115.78 282.34 118.42 282.34 121.66Z" fill="#C3C3D2"/>
<path d="M282.24 121.66C282.24 124.87 277.07 127.46 270.69 127.45C264.32 127.45 259.16 124.83 259.16 121.62C259.16 118.41 264.33 115.82 270.71 115.83C277.08 115.83 282.24 118.45 282.24 121.66Z" fill="#C2C2D2"/>
<path d="M282.14 121.66C282.14 124.84 277.01 127.41 270.69 127.4C264.37 127.4 259.25 124.8 259.26 121.62C259.26 118.44 264.39 115.87 270.71 115.88C277.03 115.88 282.15 118.48 282.14 121.66Z" fill="#C1C1D1"/>
<path d="M282.04 121.66C282.04 124.82 276.95 127.36 270.69 127.36C264.43 127.36 259.35 124.78 259.36 121.63C259.36 118.48 264.45 115.93 270.71 115.93C276.97 115.93 282.05 118.51 282.04 121.66Z" fill="#C0C0D0"/>
<path d="M281.95 121.66C281.95 124.79 276.91 127.32 270.7 127.31C264.49 127.31 259.46 124.76 259.46 121.63C259.46 118.5 264.5 115.97 270.71 115.98C276.92 115.98 281.95 118.53 281.95 121.66Z" fill="#BFBFCF"/>
<path d="M281.85 121.66C281.85 124.76 276.85 127.27 270.69 127.26C264.53 127.26 259.55 124.73 259.55 121.63C259.55 118.53 264.55 116.02 270.71 116.03C276.87 116.03 281.85 118.56 281.85 121.66Z" fill="#BEBECF"/>
<path d="M281.75 121.66C281.75 124.73 276.79 127.22 270.69 127.21C264.59 127.21 259.64 124.7 259.65 121.63C259.66 118.56 264.61 116.07 270.71 116.08C276.81 116.08 281.76 118.59 281.75 121.66Z" fill="#BDBDCE"/>
<path d="M281.65 121.66C281.65 124.71 276.74 127.17 270.69 127.16C264.64 127.16 259.74 124.67 259.75 121.63C259.75 118.58 264.66 116.12 270.71 116.13C276.76 116.13 281.66 118.62 281.65 121.66Z" fill="#BCBCCD"/>
<path d="M281.56 121.66C281.56 124.68 276.69 127.12 270.7 127.11C264.71 127.1 259.85 124.65 259.85 121.63C259.85 118.61 264.72 116.17 270.71 116.18C276.7 116.18 281.56 118.64 281.56 121.66Z" fill="#BBBACC"/>
<path d="M281.46 121.66C281.46 124.65 276.64 127.07 270.7 127.06C264.76 127.05 259.95 124.62 259.95 121.63C259.95 118.64 264.77 116.22 270.71 116.23C276.65 116.24 281.46 118.67 281.46 121.66Z" fill="#BAB9CC"/>
<path d="M281.36 121.66C281.36 124.62 276.58 127.02 270.69 127.01C264.8 127.01 260.03 124.59 260.04 121.63C260.04 118.67 264.82 116.27 270.71 116.28C276.6 116.29 281.37 118.7 281.36 121.66Z" fill="#B9B8CB"/>
<path d="M281.26 121.66C281.26 124.6 276.52 126.97 270.69 126.96C264.86 126.96 260.13 124.56 260.14 121.63C260.14 118.69 264.88 116.32 270.71 116.33C276.54 116.34 281.27 118.73 281.26 121.66Z" fill="#B8B7CA"/>
<path d="M281.16 121.66C281.16 124.57 276.47 126.92 270.69 126.91C264.91 126.9 260.23 124.53 260.23 121.62C260.23 118.71 264.92 116.36 270.7 116.37C276.48 116.37 281.16 118.75 281.16 121.66Z" fill="#B7B6C9"/>
<path d="M281.07 121.66C281.07 124.54 276.42 126.87 270.7 126.86C264.98 126.86 260.34 124.51 260.34 121.62C260.34 118.73 264.99 116.41 270.71 116.42C276.43 116.43 281.07 118.77 281.07 121.66Z" fill="#B5B5C8"/>
<path d="M280.97 121.66C280.97 124.52 276.37 126.82 270.69 126.82C265.02 126.82 260.43 124.49 260.43 121.63C260.43 118.77 265.03 116.47 270.71 116.47C276.38 116.47 280.97 118.8 280.97 121.66Z" fill="#B4B4C8"/>
<path d="M280.87 121.66C280.87 124.49 276.31 126.77 270.69 126.77C265.07 126.77 260.52 124.46 260.53 121.63C260.54 118.8 265.09 116.52 270.71 116.52C276.33 116.52 280.88 118.83 280.87 121.66Z" fill="#B3B3C7"/>
<path d="M280.77 121.66C280.77 124.46 276.25 126.73 270.69 126.72C265.13 126.72 260.62 124.43 260.63 121.63C260.64 118.83 265.15 116.56 270.71 116.57C276.27 116.57 280.78 118.86 280.77 121.66Z" fill="#B2B2C6"/>
<path d="M280.68 121.66C280.68 124.43 276.21 126.68 270.7 126.67C265.19 126.67 260.73 124.41 260.73 121.63C260.73 118.86 265.2 116.61 270.71 116.62C276.22 116.62 280.68 118.88 280.68 121.66Z" fill="#B1B1C5"/>
<path d="M280.58 121.66C280.58 124.41 276.15 126.63 270.7 126.62C265.25 126.62 260.83 124.38 260.83 121.63C260.83 118.88 265.26 116.66 270.71 116.67C276.16 116.67 280.58 118.91 280.58 121.66Z" fill="#B0B0C4"/>
<path d="M280.48 121.66C280.48 124.38 276.09 126.58 270.69 126.57C265.29 126.57 260.91 124.35 260.92 121.63C260.92 118.91 265.31 116.71 270.71 116.72C276.11 116.72 280.49 118.94 280.48 121.66Z" fill="#AFAFC4"/>
<path d="M280.38 121.66C280.38 124.35 276.04 126.53 270.69 126.52C265.34 126.52 261.01 124.32 261.02 121.63C261.02 118.94 265.36 116.76 270.71 116.77C276.06 116.77 280.39 118.97 280.38 121.66Z" fill="#AEADC3"/>
<path d="M280.28 121.66C280.28 124.33 275.98 126.48 270.69 126.47C265.4 126.47 261.11 124.29 261.11 121.63C261.11 118.97 265.41 116.81 270.7 116.82C275.99 116.82 280.28 119 280.28 121.66Z" fill="#ADACC2"/>
<path d="M280.19 121.66C280.19 124.3 275.94 126.43 270.7 126.42C265.46 126.42 261.22 124.27 261.22 121.63C261.22 118.99 265.47 116.86 270.71 116.87C275.95 116.87 280.19 119.02 280.19 121.66Z" fill="#ABABC1"/>
<path d="M280.09 121.66C280.09 124.27 275.88 126.38 270.7 126.37C265.52 126.37 261.32 124.24 261.32 121.63C261.32 119.02 265.53 116.91 270.71 116.92C275.89 116.92 280.09 119.05 280.09 121.66Z" fill="#AAAAC0"/>
<path d="M279.99 121.66C279.99 124.24 275.82 126.33 270.69 126.32C265.56 126.32 261.4 124.21 261.41 121.63C261.41 119.05 265.58 116.96 270.71 116.97C275.84 116.97 280 119.08 279.99 121.66Z" fill="#A9A9BF"/>
<path d="M279.89 121.66C279.89 124.22 275.77 126.28 270.69 126.28C265.61 126.28 261.5 124.19 261.51 121.64C261.51 119.08 265.63 117.02 270.71 117.02C275.79 117.02 279.9 119.11 279.89 121.66Z" fill="#A8A8BE"/>
<path d="M279.8 121.66C279.8 124.19 275.72 126.23 270.7 126.23C265.68 126.23 261.61 124.17 261.61 121.64C261.61 119.11 265.69 117.07 270.71 117.07C275.73 117.07 279.8 119.13 279.8 121.66Z" fill="#A7A6BE"/>
<path d="M279.7 121.66C279.7 124.16 275.67 126.18 270.7 126.18C265.73 126.18 261.71 124.14 261.71 121.64C261.71 119.14 265.74 117.12 270.71 117.12C275.68 117.12 279.7 119.16 279.7 121.66Z" fill="#A6A5BD"/>
<path d="M279.6 121.66C279.6 124.13 275.61 126.14 270.69 126.13C265.78 126.13 261.79 124.11 261.8 121.63C261.81 119.15 265.79 117.15 270.71 117.16C275.62 117.16 279.61 119.18 279.6 121.66Z" fill="#A5A4BC"/>
<path d="M279.5 121.66C279.5 124.11 275.55 126.09 270.69 126.08C265.83 126.08 261.89 124.08 261.9 121.63C261.9 119.18 265.85 117.2 270.71 117.21C275.57 117.21 279.51 119.21 279.5 121.66Z" fill="#A3A3BB"/>
<path d="M279.4 121.66C279.4 124.08 275.5 126.04 270.69 126.03C265.88 126.03 261.99 124.05 261.99 121.63C261.99 119.21 265.89 117.25 270.7 117.26C275.51 117.26 279.4 119.24 279.4 121.66Z" fill="#A2A2BA"/>
<path d="M279.31 121.66C279.31 124.05 275.45 125.99 270.7 125.98C265.95 125.98 262.1 124.03 262.1 121.63C262.1 119.24 265.96 117.3 270.71 117.31C275.46 117.31 279.31 119.26 279.31 121.66Z" fill="#A1A1B9"/>
<path d="M279.21 121.66C279.21 124.03 275.39 125.94 270.7 125.93C266 125.93 262.2 124 262.2 121.63C262.2 119.26 266.02 117.35 270.71 117.36C275.41 117.36 279.21 119.29 279.21 121.66Z" fill="#A09FB8"/>
<path d="M279.11 121.66C279.11 124 275.34 125.89 270.69 125.88C266.05 125.88 262.28 123.97 262.29 121.63C262.29 119.29 266.06 117.4 270.71 117.41C275.35 117.41 279.12 119.32 279.11 121.66Z" fill="#9F9EB7"/>
<path d="M279.01 121.66C279.01 123.97 275.28 125.84 270.69 125.83C266.1 125.83 262.38 123.94 262.38 121.63C262.38 119.32 266.11 117.45 270.7 117.46C275.29 117.46 279.01 119.35 279.01 121.66Z" fill="#9D9DB7"/>
<path d="M278.92 121.66C278.92 123.94 275.24 125.79 270.7 125.78C266.16 125.78 262.49 123.92 262.49 121.63C262.49 119.35 266.17 117.5 270.71 117.51C275.25 117.51 278.92 119.37 278.92 121.66Z" fill="#9C9CB6"/>
<path d="M278.82 121.66C278.82 123.92 275.18 125.74 270.7 125.74C266.22 125.74 262.59 123.9 262.59 121.64C262.59 119.38 266.23 117.56 270.71 117.57C275.19 117.57 278.82 119.41 278.82 121.67V121.66Z" fill="#9B9AB5"/>
<path d="M278.72 121.66C278.72 123.89 275.12 125.69 270.7 125.69C266.27 125.69 262.68 123.87 262.69 121.64C262.69 119.41 266.29 117.61 270.71 117.61C275.14 117.61 278.73 119.43 278.72 121.66Z" fill="#9A99B4"/>
<path d="M278.62 121.66C278.62 123.86 275.07 125.64 270.69 125.64C266.31 125.64 262.77 123.84 262.78 121.64C262.79 119.44 266.33 117.66 270.71 117.66C275.09 117.66 278.63 119.46 278.62 121.66Z" fill="#9898B3"/>
<path d="M278.52 121.66C278.52 123.84 275.01 125.59 270.69 125.59C266.37 125.59 262.87 123.81 262.87 121.64C262.87 119.46 266.38 117.71 270.7 117.71C275.02 117.71 278.52 119.49 278.52 121.66Z" fill="#9797B2"/>
<path d="M278.43 121.65C278.43 123.8 274.97 125.54 270.7 125.53C266.43 125.52 262.98 123.78 262.98 121.63C262.98 119.48 266.44 117.74 270.71 117.75C274.98 117.75 278.43 119.5 278.43 121.65Z" fill="#9695B1"/>
<path d="M278.33 121.65C278.33 123.77 274.91 125.49 270.7 125.48C266.49 125.48 263.08 123.75 263.08 121.63C263.08 119.51 266.5 117.79 270.71 117.8C274.92 117.8 278.33 119.53 278.33 121.65Z" fill="#9594B0"/>
<path d="M278.23 121.65C278.23 123.74 274.85 125.44 270.69 125.43C266.53 125.42 263.16 123.72 263.17 121.63C263.17 119.54 266.55 117.84 270.71 117.85C274.87 117.85 278.24 119.56 278.23 121.65Z" fill="#9393AF"/>
<path d="M278.13 121.65C278.13 123.72 274.8 125.39 270.69 125.38C266.59 125.38 263.26 123.69 263.26 121.63C263.26 119.56 266.59 117.89 270.7 117.9C274.81 117.91 278.13 119.59 278.13 121.65Z" fill="#9292AE"/>
<path d="M278.04 121.65C278.04 123.69 274.75 125.34 270.7 125.33C266.65 125.32 263.37 123.67 263.37 121.63C263.37 119.59 266.66 117.94 270.71 117.95C274.76 117.95 278.04 119.61 278.04 121.65Z" fill="#9190AD"/>
<path d="M277.94 121.65C277.94 123.66 274.69 125.29 270.7 125.28C266.7 125.28 263.47 123.64 263.47 121.62C263.47 119.61 266.72 117.98 270.71 117.99C274.71 117.99 277.94 119.63 277.94 121.65Z" fill="#908FAC"/>
<path d="M277.84 121.65C277.84 123.64 274.64 125.24 270.7 125.23C266.76 125.23 263.56 123.61 263.57 121.62C263.58 119.63 266.77 118.03 270.71 118.04C274.65 118.04 277.85 119.66 277.84 121.65Z" fill="#8E8EAB"/>
<path d="M277.74 121.65C277.74 123.61 274.58 125.19 270.69 125.18C266.8 125.18 263.65 123.58 263.65 121.62C263.65 119.66 266.81 118.08 270.7 118.09C274.59 118.09 277.74 119.69 277.74 121.65Z" fill="#8D8CAA"/>
<path d="M277.64 121.65C277.64 123.58 274.53 125.14 270.69 125.14C266.86 125.14 263.75 123.56 263.75 121.63C263.75 119.7 266.86 118.14 270.7 118.14C274.53 118.14 277.64 119.72 277.64 121.65Z" fill="#8C8BA9"/>
<path d="M277.55 121.65C277.55 123.55 274.48 125.09 270.7 125.09C266.92 125.09 263.86 123.54 263.86 121.63C263.86 119.73 266.93 118.19 270.71 118.19C274.49 118.19 277.55 119.74 277.55 121.65Z" fill="#8A8AA8"/>
<path d="M277.45 121.65C277.45 123.53 274.42 125.04 270.7 125.04C266.97 125.04 263.95 123.51 263.96 121.63C263.96 119.75 266.99 118.24 270.71 118.24C274.44 118.24 277.46 119.77 277.45 121.65Z" fill="#8989A7"/>
<path d="M277.35 121.65C277.35 123.5 274.37 124.99 270.7 124.99C267.03 124.99 264.05 123.48 264.06 121.63C264.06 119.78 267.04 118.29 270.71 118.29C274.38 118.29 277.36 119.8 277.35 121.65Z" fill="#8887A6"/>
<path d="M277.25 121.65C277.25 123.47 274.31 124.94 270.69 124.94C267.07 124.94 264.14 123.45 264.14 121.63C264.14 119.81 267.08 118.33 270.7 118.34C274.32 118.34 277.25 119.83 277.25 121.65Z" fill="#8686A6"/>
<path d="M277.16 121.65C277.16 123.45 274.27 124.9 270.7 124.89C267.13 124.88 264.25 123.42 264.25 121.63C264.25 119.83 267.14 118.38 270.71 118.39C274.27 118.39 277.16 119.86 277.16 121.65Z" fill="#8585A5"/>
<path d="M277.06 121.65C277.06 123.42 274.21 124.85 270.7 124.84C267.19 124.84 264.35 123.4 264.35 121.63C264.35 119.86 267.2 118.43 270.71 118.44C274.22 118.44 277.06 119.88 277.06 121.65Z" fill="#8483A4"/>
<path d="M276.96 121.65C276.96 123.39 274.15 124.8 270.7 124.79C267.24 124.79 264.44 123.37 264.45 121.63C264.45 119.89 267.26 118.48 270.71 118.49C274.16 118.5 276.97 119.91 276.96 121.65Z" fill="#8282A3"/>
<path d="M276.86 121.65C276.86 123.36 274.1 124.75 270.69 124.74C267.29 124.74 264.53 123.34 264.53 121.63C264.53 119.92 267.29 118.53 270.7 118.54C274.11 118.55 276.86 119.94 276.86 121.65Z" fill="#8180A2"/>
<path d="M276.76 121.65C276.76 123.34 274.04 124.7 270.69 124.69C267.34 124.68 264.63 123.31 264.63 121.63C264.63 119.94 267.35 118.58 270.7 118.59C274.05 118.59 276.76 119.97 276.76 121.65Z" fill="#807FA1"/>
<path d="M276.67 121.65C276.67 123.31 273.99 124.65 270.7 124.64C267.41 124.64 264.74 123.29 264.74 121.63C264.74 119.97 267.42 118.63 270.71 118.64C274 118.65 276.67 119.99 276.67 121.65Z" fill="#7E7EA0"/>
<path d="M276.57 121.65C276.57 123.28 273.94 124.6 270.7 124.6C267.46 124.6 264.83 123.27 264.84 121.64C264.84 120.01 267.47 118.69 270.71 118.69C273.95 118.69 276.58 120.02 276.57 121.65Z" fill="#7D7C9E"/>
<path d="M276.47 121.65C276.47 123.25 273.88 124.55 270.7 124.55C267.51 124.55 264.93 123.24 264.94 121.64C264.94 120.04 267.53 118.74 270.71 118.74C273.9 118.74 276.48 120.05 276.47 121.65Z" fill="#7C7B9D"/>
<path d="M276.37 121.65C276.37 123.23 273.83 124.5 270.69 124.5C267.56 124.5 265.02 123.21 265.02 121.63C265.02 120.05 267.56 118.78 270.7 118.78C273.83 118.78 276.37 120.07 276.37 121.65Z" fill="#7A7A9C"/>
<path d="M276.27 121.65C276.27 123.2 273.77 124.45 270.69 124.45C267.61 124.45 265.12 123.18 265.12 121.63C265.12 120.08 267.62 118.83 270.7 118.83C273.78 118.83 276.27 120.1 276.27 121.65Z" fill="#79789B"/>
<path d="M276.18 121.65C276.18 123.17 273.72 124.4 270.7 124.4C267.68 124.4 265.23 123.16 265.23 121.63C265.23 120.11 267.69 118.88 270.71 118.88C273.73 118.88 276.18 120.12 276.18 121.65Z" fill="#77779A"/>
<path d="M276.08 121.65C276.08 123.15 273.67 124.35 270.7 124.35C267.73 124.35 265.32 123.13 265.33 121.63C265.34 120.13 267.74 118.93 270.71 118.93C273.68 118.93 276.09 120.15 276.08 121.65Z" fill="#767599"/>
<path d="M275.98 121.65C275.98 123.12 273.61 124.31 270.7 124.3C267.78 124.3 265.42 123.1 265.42 121.63C265.42 120.16 267.79 118.97 270.7 118.98C273.62 118.98 275.98 120.18 275.98 121.65Z" fill="#757498"/>
<path d="M275.884 121.659C275.886 120.218 273.569 119.046 270.708 119.041C267.847 119.037 265.526 120.202 265.524 121.643C265.521 123.085 267.839 124.257 270.7 124.261C273.56 124.266 275.881 123.101 275.884 121.659Z" fill="#737397"/>
<path d="M275.79 121.65C275.79 123.06 273.51 124.21 270.7 124.2C267.89 124.2 265.62 123.05 265.62 121.63C265.62 120.22 267.9 119.07 270.71 119.08C273.52 119.09 275.79 120.23 275.79 121.65Z" fill="#727196"/>
<path d="M275.69 121.65C275.69 123.04 273.45 124.16 270.7 124.15C267.95 124.15 265.71 123.02 265.72 121.63C265.72 120.24 267.96 119.12 270.71 119.13C273.46 119.13 275.7 120.26 275.69 121.65Z" fill="#707095"/>
<path d="M275.59 121.65C275.59 123.01 273.4 124.11 270.7 124.1C268 124.1 265.81 122.99 265.81 121.63C265.81 120.27 268 119.17 270.7 119.18C273.4 119.18 275.59 120.29 275.59 121.65Z" fill="#6F6E94"/>
<path d="M275.49 121.65C275.49 122.98 273.34 124.06 270.69 124.06C268.04 124.06 265.9 122.97 265.9 121.64C265.9 120.31 268.05 119.23 270.7 119.23C273.35 119.23 275.49 120.32 275.49 121.65Z" fill="#6E6D93"/>
<path d="M275.39 121.65C275.39 122.96 273.28 124.01 270.69 124.01C268.1 124.01 266 122.94 266 121.64C266 120.33 268.11 119.28 270.7 119.28C273.29 119.28 275.39 120.35 275.39 121.65Z" fill="#6C6B92"/>
<path d="M275.3 121.65C275.3 122.93 273.24 123.96 270.7 123.96C268.16 123.96 266.11 122.92 266.11 121.64C266.11 120.36 268.17 119.33 270.71 119.33C273.25 119.33 275.3 120.37 275.3 121.65Z" fill="#6B6A91"/>
<path d="M275.2 121.65C275.2 122.9 273.18 123.91 270.7 123.91C268.22 123.91 266.2 122.89 266.21 121.64C266.21 120.39 268.23 119.38 270.71 119.38C273.19 119.38 275.21 120.4 275.2 121.65Z" fill="#696990"/>
<path d="M275.1 121.65C275.1 122.87 273.13 123.86 270.7 123.86C268.27 123.86 266.3 122.86 266.3 121.64C266.3 120.42 268.27 119.43 270.7 119.43C273.13 119.43 275.1 120.43 275.1 121.65Z" fill="#68678F"/>
<path d="M275 121.65C275 122.85 273.07 123.81 270.69 123.81C268.31 123.81 266.39 122.83 266.39 121.64C266.39 120.44 268.32 119.48 270.7 119.48C273.08 119.48 275 120.46 275 121.65Z" fill="#66668E"/>
<path d="M274.91 121.65C274.91 122.82 273.02 123.76 270.7 123.76C268.38 123.76 266.5 122.81 266.5 121.64C266.5 120.47 268.39 119.53 270.71 119.53C273.03 119.53 274.91 120.48 274.91 121.65Z" fill="#65648D"/>
<path d="M274.81 121.65C274.81 122.79 272.97 123.72 270.7 123.71C268.43 123.71 266.59 122.78 266.6 121.64C266.6 120.5 268.44 119.57 270.71 119.58C272.98 119.58 274.82 120.51 274.81 121.65Z" fill="#63638B"/>
<path d="M274.71 121.65C274.71 122.77 272.91 123.67 270.7 123.66C268.49 123.65 266.69 122.75 266.69 121.63C266.69 120.51 268.49 119.61 270.7 119.62C272.91 119.62 274.71 120.53 274.71 121.65Z" fill="#62618A"/>
<path d="M274.61 121.65C274.61 122.74 272.86 123.62 270.7 123.61C268.54 123.61 266.79 122.72 266.79 121.63C266.79 120.54 268.54 119.66 270.7 119.67C272.86 119.68 274.61 120.56 274.61 121.65Z" fill="#606089"/>
<path d="M274.51 121.65C274.51 122.71 272.8 123.57 270.69 123.56C268.58 123.56 266.88 122.69 266.88 121.63C266.88 120.57 268.59 119.71 270.7 119.72C272.81 119.72 274.51 120.59 274.51 121.65Z" fill="#5F5E88"/>
<path d="M274.42 121.65C274.42 122.68 272.75 123.52 270.7 123.52C268.65 123.52 266.99 122.68 266.99 121.64C266.99 120.61 268.66 119.77 270.71 119.77C272.76 119.77 274.42 120.61 274.42 121.65Z" fill="#5D5D87"/>
<path d="M274.32 121.65C274.32 122.66 272.7 123.47 270.7 123.47C268.7 123.47 267.08 122.65 267.08 121.64C267.08 120.63 268.7 119.82 270.7 119.82C272.7 119.82 274.32 120.64 274.32 121.65Z" fill="#5C5B86"/>
<path d="M274.22 121.65C274.22 122.63 272.64 123.42 270.7 123.42C268.76 123.42 267.18 122.62 267.18 121.64C267.18 120.66 268.76 119.87 270.7 119.87C272.64 119.87 274.22 120.67 274.22 121.65Z" fill="#5A5A85"/>
<path d="M274.12 121.65C274.12 122.6 272.59 123.37 270.69 123.37C268.8 123.37 267.27 122.59 267.27 121.64C267.27 120.69 268.8 119.92 270.7 119.92C272.59 119.92 274.12 120.7 274.12 121.65Z" fill="#595884"/>
<path d="M274.03 121.65C274.03 122.57 272.54 123.32 270.7 123.32C268.86 123.32 267.38 122.57 267.38 121.64C267.38 120.72 268.87 119.97 270.71 119.97C272.55 119.97 274.03 120.72 274.03 121.65Z" fill="#575783"/>
<path d="M273.93 121.65C273.93 122.55 272.48 123.27 270.7 123.27C268.92 123.27 267.47 122.54 267.48 121.64C267.49 120.74 268.93 120.02 270.71 120.02C272.49 120.02 273.94 120.75 273.93 121.65Z" fill="#565581"/>
<path d="M273.83 121.65C273.83 122.52 272.43 123.22 270.7 123.22C268.97 123.22 267.57 122.51 267.57 121.64C267.57 120.77 268.97 120.07 270.7 120.07C272.43 120.07 273.83 120.78 273.83 121.65Z" fill="#545380"/>
<path d="M273.73 121.65C273.73 122.49 272.37 123.17 270.7 123.17C269.03 123.17 267.67 122.48 267.67 121.64C267.67 120.8 269.03 120.12 270.7 120.12C272.37 120.12 273.73 120.81 273.73 121.65Z" fill="#53527F"/>
<path d="M273.63 121.65C273.63 122.47 272.31 123.13 270.69 123.12C269.07 123.11 267.76 122.45 267.76 121.64C267.76 120.82 269.08 120.16 270.7 120.17C272.32 120.17 273.63 120.84 273.63 121.65Z" fill="#51507E"/>
<path d="M273.54 121.65C273.54 122.44 272.27 123.08 270.7 123.07C269.13 123.06 267.87 122.43 267.87 121.64C267.87 120.85 269.14 120.21 270.71 120.22C272.28 120.23 273.54 120.86 273.54 121.65Z" fill="#504F7D"/>
<path d="M273.44 121.65C273.44 122.41 272.21 123.03 270.7 123.02C269.19 123.01 267.96 122.4 267.96 121.64C267.96 120.88 269.19 120.26 270.7 120.27C272.21 120.28 273.44 120.89 273.44 121.65Z" fill="#4E4D7C"/>
<path d="M273.34 121.65C273.34 122.38 272.16 122.98 270.7 122.98C269.24 122.98 268.06 122.38 268.06 121.65C268.06 120.92 269.24 120.32 270.7 120.32C272.16 120.32 273.34 120.92 273.34 121.65Z" fill="#4D4C7B"/>
<path d="M273.24 121.65C273.24 122.36 272.1 122.93 270.7 122.93C269.3 122.93 268.16 122.35 268.16 121.65C268.16 120.94 269.3 120.37 270.7 120.37C272.1 120.37 273.24 120.95 273.24 121.65Z" fill="#4B4A79"/>
<path d="M273.15 121.65C273.15 122.33 272.05 122.88 270.7 122.88C269.35 122.88 268.26 122.32 268.26 121.65C268.26 120.97 269.36 120.42 270.71 120.42C272.06 120.42 273.15 120.97 273.15 121.65Z" fill="#494978"/>
<path d="M273.05 121.65C273.05 122.3 272 122.83 270.7 122.83C269.4 122.83 268.35 122.3 268.35 121.64C268.35 120.99 269.4 120.46 270.7 120.46C272 120.46 273.05 120.99 273.05 121.65Z" fill="#484777"/>
<path d="M272.95 121.65C272.95 122.28 271.94 122.78 270.7 122.78C269.46 122.78 268.45 122.27 268.45 121.64C268.45 121.01 269.46 120.51 270.7 120.51C271.94 120.51 272.95 121.02 272.95 121.65Z" fill="#464576"/>
<path d="M272.85 121.65C272.85 122.25 271.89 122.73 270.7 122.73C269.51 122.73 268.55 122.24 268.55 121.64C268.55 121.04 269.51 120.56 270.7 120.56C271.89 120.56 272.85 121.05 272.85 121.65Z" fill="#454475"/>
<path d="M272.75 121.65C272.75 122.22 271.83 122.68 270.69 122.68C269.55 122.68 268.64 122.21 268.64 121.64C268.64 121.07 269.56 120.61 270.7 120.61C271.83 120.61 272.75 121.08 272.75 121.65Z" fill="#434274"/>
<path d="M272.66 121.65C272.66 122.19 271.78 122.63 270.7 122.63C269.62 122.63 268.74 122.19 268.75 121.64C268.75 121.1 269.63 120.66 270.71 120.66C271.79 120.66 272.67 121.1 272.66 121.65Z" fill="#414172"/>
<path d="M272.56 121.65C272.56 122.17 271.73 122.58 270.7 122.58C269.67 122.58 268.84 122.16 268.84 121.64C268.84 121.12 269.67 120.71 270.7 120.71C271.73 120.71 272.56 121.13 272.56 121.65Z" fill="#403F71"/>
<path d="M272.46 121.65C272.46 122.14 271.67 122.54 270.7 122.53C269.73 122.52 268.94 122.13 268.94 121.64C268.94 121.15 269.73 120.75 270.7 120.76C271.67 120.76 272.46 121.16 272.46 121.65Z" fill="#3E3D70"/>
<path d="M272.36 121.65C272.36 122.11 271.61 122.49 270.7 122.48C269.79 122.47 269.04 122.1 269.04 121.64C269.04 121.18 269.79 120.8 270.7 120.81C271.61 120.82 272.36 121.19 272.36 121.65Z" fill="#3D3C6F"/>
<path d="M272.27 121.65C272.27 122.09 271.57 122.44 270.7 122.44C269.83 122.44 269.14 122.08 269.14 121.65C269.14 121.21 269.84 120.86 270.71 120.86C271.58 120.86 272.27 121.22 272.27 121.65Z" fill="#3B3A6E"/>
<path d="M272.17 121.65C272.17 122.06 271.51 122.39 270.7 122.39C269.89 122.39 269.23 122.06 269.23 121.65C269.23 121.24 269.89 120.91 270.7 120.91C271.51 120.91 272.17 121.24 272.17 121.65Z" fill="#39386C"/>
<path d="M272.07 121.65C272.07 122.03 271.46 122.34 270.7 122.34C269.94 122.34 269.33 122.03 269.33 121.65C269.33 121.27 269.94 120.96 270.7 120.96C271.46 120.96 272.07 121.27 272.07 121.65Z" fill="#38376B"/>
<path d="M271.97 121.65C271.97 122 271.4 122.29 270.7 122.29C270 122.29 269.43 122 269.43 121.65C269.43 121.3 270 121.01 270.7 121.01C271.4 121.01 271.97 121.3 271.97 121.65Z" fill="#36356A"/>
<path d="M271.87 121.64C271.87 121.97 271.34 122.23 270.7 122.23C270.06 122.23 269.53 121.96 269.53 121.64C269.53 121.31 270.06 121.05 270.7 121.05C271.34 121.05 271.87 121.32 271.87 121.64Z" fill="#343469"/>
<path d="M271.78 121.64C271.78 121.94 271.3 122.18 270.7 122.18C270.11 122.18 269.62 121.94 269.63 121.64C269.63 121.34 270.11 121.1 270.71 121.1C271.31 121.1 271.79 121.34 271.78 121.64Z" fill="#333267"/>
<path d="M271.68 121.64C271.68 121.91 271.24 122.13 270.7 122.13C270.16 122.13 269.72 121.91 269.72 121.64C269.72 121.37 270.16 121.15 270.7 121.15C271.24 121.15 271.68 121.37 271.68 121.64Z" fill="#313066"/>
<path d="M271.58 121.64C271.58 121.88 271.19 122.08 270.7 122.08C270.21 122.08 269.82 121.88 269.82 121.64C269.82 121.4 270.21 121.2 270.7 121.2C271.19 121.2 271.58 121.4 271.58 121.64Z" fill="#2F2F65"/>
<path d="M271.48 121.64C271.48 121.86 271.13 122.03 270.7 122.03C270.27 122.03 269.92 121.85 269.92 121.63C269.92 121.41 270.27 121.24 270.7 121.24C271.13 121.24 271.48 121.42 271.48 121.64Z" fill="#2E2D64"/>
<path d="M271.39 121.64C271.39 121.83 271.08 121.98 270.71 121.98C270.33 121.98 270.03 121.82 270.03 121.63C270.03 121.44 270.34 121.29 270.71 121.29C271.09 121.29 271.39 121.45 271.39 121.64Z" fill="#2C2B63"/>
<path d="M271.29 121.64C271.29 121.8 271.03 121.94 270.7 121.93C270.38 121.93 270.11 121.8 270.11 121.63C270.11 121.47 270.37 121.34 270.7 121.34C271.02 121.34 271.29 121.47 271.29 121.64Z" fill="#2A2A61"/>
<path d="M271.19 121.64C271.19 121.78 270.97 121.89 270.7 121.89C270.43 121.89 270.21 121.78 270.21 121.64C270.21 121.5 270.43 121.39 270.7 121.39C270.97 121.39 271.19 121.5 271.19 121.64Z" fill="#292860"/>
<path d="M271.09 121.64C271.09 121.75 270.91 121.84 270.7 121.84C270.49 121.84 270.31 121.75 270.31 121.64C270.31 121.53 270.49 121.44 270.7 121.44C270.92 121.44 271.09 121.53 271.09 121.64Z" fill="#27265F"/>
<path d="M270.99 121.64C270.99 121.72 270.86 121.79 270.7 121.79C270.54 121.79 270.41 121.72 270.41 121.64C270.41 121.56 270.54 121.49 270.7 121.49C270.86 121.49 270.99 121.56 270.99 121.64Z" fill="#25245E"/>
<path d="M270.9 121.64C270.9 121.69 270.81 121.74 270.7 121.74C270.59 121.74 270.5 121.7 270.5 121.64C270.5 121.58 270.59 121.54 270.7 121.54C270.81 121.54 270.9 121.58 270.9 121.64Z" fill="#24235C"/>
<path d="M270.8 121.64C270.8 121.64 270.76 121.69 270.7 121.69C270.64 121.69 270.6 121.67 270.6 121.64C270.6 121.61 270.64 121.59 270.7 121.59C270.76 121.59 270.8 121.61 270.8 121.64Z" fill="#22215B"/>
</g>
</g>
<path d="M271.06 -3.8147e-06L246.24 48.94L217 60.29C217 59.29 217.35 58.29 218.06 57.5L268 1.37C268.81 0.459996 269.93 -3.8147e-06 271.06 -3.8147e-06Z" fill="url(#paint21_linear_259_67)"/>
<path d="M304.46 48.94L271.06 120.59L246.24 48.94H304.46Z" fill="url(#paint22_linear_259_67)"/>
<path d="M325.12 60.29L304.46 48.94L271.06 0C272.18 0 273.3 0.46 274.11 1.37L324.05 57.51C324.76 58.3 325.11 59.3 325.11 60.3L325.12 60.29Z" fill="url(#paint23_linear_259_67)"/>
<path d="M271.06 120.59C269.94 120.59 268.81 120.13 268 119.22L218.06 63.08C217.35 62.29 217 61.29 217 60.3L246.24 48.95L271.06 120.6V120.59Z" fill="url(#paint24_linear_259_67)"/>
<path d="M325.12 60.29C325.12 61.29 324.77 62.29 324.06 63.07L274.12 119.21C273.31 120.12 272.19 120.58 271.07 120.58L304.47 48.93L325.13 60.28L325.12 60.29Z" fill="url(#paint25_linear_259_67)"/>
<path d="M304.46 48.94H246.24L271.06 0L304.46 48.94Z" fill="url(#paint26_linear_259_67)"/>
<path d="M217 60.29L224.27 57.36L231.55 54.44L246.13 48.66L246.18 48.64H246.24L260.79 48.6C265.64 48.6 270.49 48.56 275.34 48.58L289.89 48.61C294.74 48.61 299.59 48.65 304.44 48.68H304.5L304.55 48.71L314.83 54.47L325.09 60.28L314.69 54.73L304.32 49.14L304.44 49.17C299.59 49.21 294.74 49.24 289.89 49.24L275.34 49.27C270.49 49.29 265.64 49.26 260.79 49.25L246.24 49.21L246.35 49.19L231.69 54.76L224.35 57.52L217 60.26V60.29Z" fill="url(#paint27_linear_259_67)"/>
<path opacity="0.6" d="M271.06 0L279.54 12.15L287.96 24.33L296.37 36.53L304.74 48.75L304.85 48.91L304.77 49.09L300.61 58.05L296.42 67L288.04 84.89L279.58 102.76L275.33 111.68L271.06 120.59L275.14 111.59L279.24 102.6L287.48 84.64L295.8 66.71L299.96 57.75L304.15 48.8L304.18 49.13L295.85 36.88L287.56 24.61L279.28 12.32L271.06 0Z" fill="#9999FF"/>
<path opacity="0.6" d="M271.06 -2.13645e-06L264.99 12.3L258.87 24.58C256.82 28.67 254.79 32.77 252.73 36.85L246.55 49.1L246.57 48.84L249.69 57.79L252.78 66.75L258.95 84.67L265.05 102.62L268.07 111.6L271.07 120.59L267.87 111.67L264.69 102.74L258.38 84.86L252.14 66.96L249.02 58.01L245.94 49.05L245.89 48.91L245.96 48.78L252.19 36.56C254.26 32.48 256.37 28.42 258.45 24.35L264.74 12.16L271.08 -0.0100021L271.06 -2.13645e-06Z" fill="#0F0F19"/>
</g>
<defs>
<radialGradient id="paint0_radial_259_67" cx="0" cy="0" r="1" gradientUnits="userSpaceOnUse" gradientTransform="translate(272.29 55.53) scale(85.96 85.96)">
<stop stop-color="#F3F3FF"/>
<stop offset="1" stop-color="#CECEEF"/>
</radialGradient>

<radialGradient id="paint3_radial_259_67" cx="0" cy="0" r="1" gradientUnits="userSpaceOnUse" gradientTransform="translate(367.82 145.16) scale(42.98 42.98)">
<stop stop-color="#F3F3FF"/>
<stop offset="1" stop-color="#CECEEF"/>
</radialGradient>

<radialGradient id="paint6_radial_259_67" cx="0" cy="0" r="1" gradientUnits="userSpaceOnUse" gradientTransform="translate(405.91 87.51) scale(42.98 42.98)">
<stop stop-color="#F3F3FF"/>
<stop offset="1" stop-color="#CECEEF"/>
</radialGradient>

<radialGradient id="paint9_radial_259_67" cx="0" cy="0" r="1" gradientUnits="userSpaceOnUse" gradientTransform="translate(173.24 145.16) rotate(180) scale(42.98 42.98)">
<stop stop-color="#F3F3FF"/>
<stop offset="1" stop-color="#CECEEF"/>
</radialGradient>

<radialGradient id="paint12_radial_259_67" cx="0" cy="0" r="1" gradientUnits="userSpaceOnUse" gradientTransform="translate(135.14 87.51) rotate(180) scale(42.98 42.98)">
<stop stop-color="#F3F3FF"/>
<stop offset="1" stop-color="#CECEEF"/>
</radialGradient>

<radialGradient id="paint15_radial_259_67" cx="0" cy="0" r="1" gradientUnits="userSpaceOnUse" gradientTransform="translate(418.78 157.96) scale(85.96 85.96)">
<stop stop-color="#F3F3FF"/>
<stop offset="1" stop-color="#CECEEF"/>
</radialGradient>

<radialGradient id="paint18_radial_259_67" cx="0" cy="0" r="1" gradientUnits="userSpaceOnUse" gradientTransform="translate(124.75 157.96) scale(85.96 85.96)">
<stop stop-color="#F3F3FF"/>
<stop offset="1" stop-color="#CECEEF"/>
</radialGradient>

<linearGradient id="paint21_linear_259_67" x1="239.11" y1="28.24" x2="268.69" y2="39.73" gradientUnits="userSpaceOnUse">
<stop stop-color="#3B7DFC"/>
<stop offset="1" stop-color="#4820E6"/>
</linearGradient>
<linearGradient id="paint22_linear_259_67" x1="246.24" y1="84.77" x2="304.46" y2="84.77" gradientUnits="userSpaceOnUse">
<stop stop-color="#3B7DFC"/>
<stop offset="1" stop-color="#4820E6"/>
</linearGradient>
<linearGradient id="paint23_linear_259_67" x1="305.1" y1="27.28" x2="285.31" y2="35.37" gradientUnits="userSpaceOnUse">
<stop stop-color="#3B7DFC"/>
<stop offset="1" stop-color="#4820E6"/>
</linearGradient>
<linearGradient id="paint24_linear_259_67" x1="232.05" y1="55.97" x2="260.45" y2="113.42" gradientUnits="userSpaceOnUse">
<stop stop-color="#3B7DFC"/>
<stop offset="1" stop-color="#4820E6"/>
</linearGradient>
<linearGradient id="paint25_linear_259_67" x1="286.33" y1="82.01" x2="305.9" y2="96.05" gradientUnits="userSpaceOnUse">
<stop stop-color="#3B7DFC"/>
<stop offset="1" stop-color="#4820E6"/>
</linearGradient>
<linearGradient id="paint26_linear_259_67" x1="256.51" y1="22.52" x2="292.57" y2="55.39" gradientUnits="userSpaceOnUse">
<stop stop-color="#3B7DFC"/>
<stop offset="1" stop-color="#4820E6"/>
</linearGradient>
<linearGradient id="paint27_linear_259_67" x1="221.5" y1="54.44" x2="329.92" y2="54.44" gradientUnits="userSpaceOnUse">
<stop stop-color="#0F0F19"/>
<stop offset="0.66" stop-color="#6E6EB8"/>
</linearGradient>
<clipPath id="clip0_259_67">
<rect width="548" height="434" fill="white"/>
</clipPath>
</defs>
</svg>
