<svg width="107" height="38" viewBox="0 0 107 38" fill="none" xmlns="http://www.w3.org/2000/svg">
<path d="M0.00382829 20.6653C0.00382829 19.0975 0.953244 18.2757 2.61472 18.0826L12.2314 16.7117C12.2314 11.4252 11.8753 10.0164 7.12444 10.0164C5.2639 10.0164 2.77168 10.4065 0.872849 10.8761L0.555102 9.0356C2.61472 8.48649 5.22561 8.09644 7.44219 8.09644C13.9732 8.09644 14.4862 10.486 14.4862 17.9993V28.0612H12.4266V24.6946C11.5576 27.4364 9.77362 28.4134 6.60762 28.4134C1.73804 28.4134 0 26.3003 0 20.6615L0.00382829 20.6653ZM3.25022 19.764C2.61855 19.8814 2.26252 20.2715 2.26252 20.8584C2.26252 25.1642 3.411 26.5729 6.93303 26.5729C11.0102 26.5729 12.2773 24.3803 12.2773 18.7415V18.4272L3.25404 19.7564L3.25022 19.764Z" fill="#48B25C"/>
<path d="M22.7209 28.0614H20.5043V8.36928H22.5639L22.6443 10.0923C24.3058 8.91838 26.4037 8.01709 28.3829 8.01709C30.7565 8.01709 32.6591 8.4488 33.9224 10.2893C35.427 9.2327 38.3556 8.01709 40.3348 8.01709C45.281 8.01709 46.9425 10.3271 46.9425 15.4963V28.0614H44.7259V15.6894C44.7259 11.5011 43.5774 10.0128 39.6993 10.0128C38.4322 10.0128 35.7409 11.0315 34.4737 12.0085C34.7111 12.4781 34.8298 13.9285 34.8298 15.7273V28.0576H32.6132V15.6857C32.6132 11.0656 31.8628 10.009 27.6249 10.009C26.3999 10.009 24.302 10.7513 22.7171 12.0047V28.0576L22.7209 28.0614Z" fill="#48B25C"/>
<path d="M55.1695 9.62275C56.3179 9.03577 58.8484 8.09661 60.1577 8.09661C65.7394 8.09661 68.0325 10.524 68.0325 18.2343C68.0325 24.8879 65.8963 28.3757 59.1662 28.3757C57.187 28.3757 55.1312 28.1788 52.9529 27.9061V0.69692L55.1695 0.5V9.62275ZM55.1695 11.5427V26.1073C56.0385 26.2247 58.2551 26.4216 59.1279 26.4216C63.2433 26.4216 65.6973 24.8955 65.6973 18.2381C65.6973 11.5806 64.0741 10.0961 59.7213 10.0961C58.4541 10.0961 56.1189 10.9974 55.1695 11.5465V11.5427Z" fill="#48B25C"/>
<path d="M88.4143 18.1964C88.4143 25.2818 86.3968 28.4136 80.4974 28.4136C74.598 28.4136 72.5422 25.2818 72.5422 18.1964C72.5422 11.111 74.6401 8.01709 80.4974 8.01709C86.3547 8.01709 88.4143 11.1489 88.4143 18.1964ZM80.4974 26.4557C84.8502 26.4557 86.0791 23.9109 86.0791 18.1964C86.0791 12.4819 84.854 10.0128 80.4974 10.0128C76.1408 10.0128 74.8775 12.4781 74.8775 18.1964C74.8775 23.9147 76.1064 26.4557 80.4974 26.4557Z" fill="#48B25C"/>
<path d="M93.0848 25.4406C94.865 25.9481 97.4797 26.4593 99.2981 26.4593C102.663 26.4593 103.969 25.6376 103.969 22.661C103.969 20.2715 103.176 19.764 99.4168 19.0596C94.3903 18.1205 92.9279 17.1397 92.9279 13.6557C92.9279 9.46731 95.3435 8.09644 99.7346 8.09644C101.595 8.09644 104.126 8.44862 105.91 8.83868L105.634 10.7587C103.892 10.3269 101.557 9.97476 99.8953 9.97476C96.7676 9.97476 95.2248 10.6791 95.2248 13.5383C95.2248 15.8104 96.136 16.2384 100.45 17.1018C105.121 18.0031 106.269 18.9422 106.269 22.5815C106.269 26.8494 104.328 28.3755 99.4627 28.3755C97.2462 28.3755 94.8726 27.9059 92.6943 27.3985L93.0886 25.4406H93.0848Z" fill="#48B25C"/>
</svg>
