<svg width="71" height="65" viewBox="0 0 71 65" fill="none" xmlns="http://www.w3.org/2000/svg">
<path d="M32.166 63.0948C49.2512 63.0948 63.1015 49.2445 63.1015 32.1593C63.1015 15.0741 49.2512 1.22375 32.166 1.22375C15.0808 1.22375 1.23044 15.0741 1.23044 32.1593C1.23044 49.2445 15.0808 63.0948 32.166 63.0948Z" fill="white"/>
<path d="M32.1593 64.3185C14.4154 64.3185 0 49.8787 0 32.1593C0 14.4399 14.4154 0 32.1593 0C49.9031 0 64.3185 14.4154 64.3185 32.1593C64.3185 49.9031 49.9031 64.3185 32.1593 64.3185ZM32.1593 4.62565C16.9607 4.60117 4.60117 16.9607 4.60117 32.1593C4.60117 47.3578 16.9607 59.6929 32.1348 59.6929C47.3089 59.6929 59.6684 47.3333 59.6684 32.1593C59.6684 16.9852 47.3333 4.60117 32.1593 4.60117V4.62565Z" fill="#3B7DFC"/>
<path d="M59.7418 20.9011C53.5253 20.9011 48.4836 25.9428 48.4836 32.1593C48.4836 38.3758 53.5253 43.4175 59.7418 43.4175C65.9583 43.4175 71 38.3758 71 32.1593C71 25.9428 65.9583 20.9011 59.7418 20.9011Z" fill="#3B7DFC"/>
<path d="M25.698 39.1097C23.6177 39.1097 22.0758 38.4 21.0479 37.0049C20.02 35.5854 19.506 33.7254 19.506 31.3759C19.506 29.0263 20.02 27.1418 21.0479 25.7468C22.0758 24.3517 23.6177 23.642 25.698 23.642C27.7784 23.642 29.3202 24.3517 30.3482 25.7468C31.3761 27.1663 31.89 29.0263 31.89 31.3759C31.89 33.7254 31.3761 35.6099 30.3482 37.0049C29.3202 38.4245 27.7784 39.1097 25.698 39.1097ZM23.4954 27.7537C23.0303 28.6592 22.7856 29.8829 22.7856 31.3759C22.7856 32.8688 23.0303 34.0925 23.4954 34.9981C23.9604 35.9281 24.6946 36.3686 25.698 36.3686C26.7015 36.3686 27.4357 35.9036 27.9007 34.9981C28.3657 34.0925 28.6105 32.8688 28.6105 31.3759C28.6105 29.8829 28.3657 28.6592 27.9007 27.7537C27.4357 26.8481 26.7015 26.3831 25.698 26.3831C24.6946 26.3831 23.9604 26.8481 23.4954 27.7537Z" fill="#3B7DFC"/>
<path d="M33.7501 23.9601H39.8198V38.9384H36.6136V26.7991H33.7501V23.9356V23.9601Z" fill="#3B7DFC"/>
</svg>
