<svg width="71" height="65" viewBox="0 0 71 65" fill="none" xmlns="http://www.w3.org/2000/svg">
<path d="M32.166 62.3111C48.8187 62.3111 62.3184 48.8115 62.3184 32.1588C62.3184 15.5061 48.8187 2.00641 32.166 2.00641C15.5133 2.00641 2.01364 15.5061 2.01364 32.1588C2.01364 48.8115 15.5133 62.3111 32.166 62.3111Z" fill="white"/>
<path d="M32.1593 64.3185C14.4154 64.3185 0 49.8787 0 32.1593C0 14.4399 14.4154 0 32.1593 0C49.9031 0 64.3185 14.4154 64.3185 32.1593C64.3185 49.9031 49.9031 64.3185 32.1593 64.3185ZM32.1593 4.62565C16.9607 4.60117 4.60117 16.9607 4.60117 32.1593C4.60117 47.3578 16.9607 59.6929 32.1348 59.6929C47.3089 59.6929 59.6684 47.3333 59.6684 32.1593C59.6684 16.9852 47.3333 4.60117 32.1593 4.60117V4.62565Z" fill="#3B7DFC"/>
<path d="M59.7418 20.9011C53.5253 20.9011 48.4836 25.9428 48.4836 32.1593C48.4836 38.3758 53.5253 43.4175 59.7418 43.4175C65.9583 43.4175 71 38.3758 71 32.1593C71 25.9428 65.9583 20.9011 59.7418 20.9011Z" fill="#3B7DFC"/>
<path d="M23.6911 39.1097C21.6108 39.1097 20.0689 38.4 19.041 37.0049C18.0131 35.5854 17.4991 33.7254 17.4991 31.3759C17.4991 29.0263 18.0131 27.1418 19.041 25.7468C20.0689 24.3517 21.6108 23.642 23.6911 23.642C25.7714 23.642 27.3133 24.3517 28.3412 25.7468C29.3692 27.1663 29.8831 29.0263 29.8831 31.3759C29.8831 33.7254 29.3692 35.6099 28.3412 37.0049C27.3133 38.4245 25.7714 39.1097 23.6911 39.1097ZM21.4884 27.7537C21.0234 28.6592 20.7787 29.8829 20.7787 31.3759C20.7787 32.8688 21.0234 34.0925 21.4884 34.9981C21.9534 35.9281 22.6877 36.3686 23.6911 36.3686C24.6946 36.3686 25.4288 35.9036 25.8938 34.9981C26.3588 34.0925 26.6036 32.8688 26.6036 31.3759C26.6036 29.8829 26.3588 28.6592 25.8938 27.7537C25.4288 26.8481 24.6946 26.3831 23.6911 26.3831C22.6877 26.3831 21.9534 26.8481 21.4884 27.7537Z" fill="#3B7DFC"/>
<path d="M32.6732 26.7991V23.9356H41.851V26.2607L38.7917 29.7605C39.991 29.9563 40.921 30.4703 41.5818 31.2779C42.2426 32.0856 42.5608 33.0156 42.5608 34.068C42.5608 35.6343 42.0224 36.8825 40.97 37.7636C39.8931 38.6692 38.547 39.1097 36.8827 39.1097C35.2185 39.1097 33.5542 38.5223 31.841 37.3475L33.2116 34.6798C34.6311 35.6833 35.9038 36.1728 37.0051 36.1728C37.6659 36.1728 38.2288 36.0014 38.6694 35.6833C39.1099 35.3651 39.3302 34.8756 39.3302 34.2638C39.3302 33.6519 39.0854 33.138 38.5715 32.7953C38.0575 32.4527 37.3722 32.2569 36.4912 32.2569C36.0261 32.2569 35.3653 32.4037 34.5087 32.6729V30.201L37.3722 26.8236H32.6732V26.7991Z" fill="#3B7DFC"/>
</svg>
