<svg width="71" height="65" viewBox="0 0 71 65" fill="none" xmlns="http://www.w3.org/2000/svg">
<path d="M32.1593 1.83557C15.3944 1.83557 1.83558 15.3943 1.83558 32.1593C1.83558 48.9242 15.4188 62.4829 32.1593 62.4829C48.8997 62.4829 62.4829 48.8997 62.4829 32.1593C62.4829 15.4188 48.8997 1.83557 32.1593 1.83557Z" fill="white"/>
<path d="M32.1593 64.3185C14.4154 64.3185 0 49.8787 0 32.1593C0 14.4399 14.4154 0 32.1593 0C49.9031 0 64.3185 14.4154 64.3185 32.1593C64.3185 49.9031 49.9031 64.3185 32.1593 64.3185ZM32.1593 4.62565C16.9607 4.60117 4.60117 16.9607 4.60117 32.1593C4.60117 47.3578 16.9607 59.6929 32.1348 59.6929C47.3089 59.6929 59.6684 47.3333 59.6684 32.1593C59.6684 16.9852 47.3333 4.60117 32.1593 4.60117V4.62565Z" fill="#3B7DFC"/>
<path d="M59.7418 20.9011C53.5253 20.9011 48.4836 25.9428 48.4836 32.1593C48.4836 38.3758 53.5253 43.4175 59.7418 43.4175C65.9583 43.4175 71 38.3758 71 32.1593C71 25.9428 65.9583 20.9011 59.7418 20.9011Z" fill="#3B7DFC"/>
<path d="M23.5199 39.1097C21.4396 39.1097 19.8977 38.4 18.8698 37.0049C17.8418 35.5854 17.3279 33.7254 17.3279 31.3759C17.3279 29.0263 17.8418 27.1418 18.8698 25.7468C19.8977 24.3517 21.4396 23.642 23.5199 23.642C25.6002 23.642 27.1421 24.3517 28.17 25.7468C29.1979 27.1663 29.7119 29.0263 29.7119 31.3759C29.7119 33.7254 29.1979 35.6099 28.17 37.0049C27.1421 38.4245 25.6002 39.1097 23.5199 39.1097ZM21.3172 27.7537C20.8522 28.6592 20.6074 29.8829 20.6074 31.3759C20.6074 32.8688 20.8522 34.0925 21.3172 34.9981C21.7822 35.9281 22.5164 36.3686 23.5199 36.3686C24.5233 36.3686 25.2576 35.9036 25.7226 34.9981C26.1876 34.0925 26.4323 32.8688 26.4323 31.3759C26.4323 29.8829 26.1876 28.6592 25.7226 27.7537C25.2576 26.8481 24.5233 26.3831 23.5199 26.3831C22.5164 26.3831 21.7822 26.8481 21.3172 27.7537Z" fill="#3B7DFC"/>
<path d="M38.4737 29.785C38.8408 29.2466 39.0366 28.7326 39.0366 28.2187C39.0366 27.7047 38.8653 27.2886 38.5471 26.9705C38.2289 26.6278 37.7884 26.4565 37.2744 26.4565C36.3199 26.4565 35.4389 27.1173 34.5823 28.4634L31.8901 26.8726C32.5998 25.7957 33.3585 24.9636 34.1907 24.4007C35.0228 23.8378 36.0997 23.5685 37.3968 23.5685C38.6939 23.5685 39.8198 23.9846 40.7987 24.7923C41.7777 25.6244 42.2672 26.7257 42.2672 28.1452C42.2672 28.9284 42.0714 29.6626 41.6798 30.3724C41.2882 31.0822 40.554 31.9877 39.5016 33.0891L36.8094 35.9036H42.7322V38.9139H32.1593V36.4176L36.5647 31.9143C37.4458 31.0087 38.0821 30.299 38.4737 29.7605V29.785Z" fill="#3B7DFC"/>
</svg>
